<svg width="30" height="30" viewBox="0 0 30 30" fill="none" xmlns="http://www.w3.org/2000/svg">
<rect width="30" height="30" rx="6" fill="#1F7546"/>
<g clip-path="url(#clip0_380_1607)">
<path d="M12.5385 9.46155H22.3846M12.5385 14.6923H18.4461M12.5385 19.9231H22.3846" stroke="white" stroke-width="3" stroke-linecap="round" stroke-linejoin="round"/>
<path d="M8.84613 10.8153C9.17255 10.8153 9.4856 10.6792 9.71641 10.4368C9.94723 10.1945 10.0769 9.86576 10.0769 9.52302C10.0769 9.18028 9.94723 8.85158 9.71641 8.60922C9.4856 8.36687 9.17255 8.23071 8.84613 8.23071C8.51971 8.23071 8.20665 8.36687 7.97584 8.60922C7.74503 8.85158 7.61536 9.18028 7.61536 9.52302C7.61536 9.86576 7.74503 10.1945 7.97584 10.4368C8.20665 10.6792 8.51971 10.8153 8.84613 10.8153ZM8.84613 15.9846C9.17255 15.9846 9.4856 15.8484 9.71641 15.6061C9.94723 15.3637 10.0769 15.035 10.0769 14.6923C10.0769 14.3495 9.94723 14.0208 9.71641 13.7785C9.4856 13.5361 9.17255 13.3999 8.84613 13.3999C8.51971 13.3999 8.20665 13.5361 7.97584 13.7785C7.74503 14.0208 7.61536 14.3495 7.61536 14.6923C7.61536 15.035 7.74503 15.3637 7.97584 15.6061C8.20665 15.8484 8.51971 15.9846 8.84613 15.9846ZM8.84613 21.1538C9.17255 21.1538 9.4856 21.0176 9.71641 20.7753C9.94723 20.5329 10.0769 20.2042 10.0769 19.8615C10.0769 19.5187 9.94723 19.19 9.71641 18.9477C9.4856 18.7053 9.17255 18.5692 8.84613 18.5692C8.51971 18.5692 8.20665 18.7053 7.97584 18.9477C7.74503 19.19 7.61536 19.5187 7.61536 19.8615C7.61536 20.2042 7.74503 20.5329 7.97584 20.7753C8.20665 21.0176 8.51971 21.1538 8.84613 21.1538Z" fill="white"/>
</g>
<defs>
<clipPath id="clip0_380_1607">
<rect width="16" height="16" fill="white" transform="translate(7 7)"/>
</clipPath>
</defs>
</svg>
