<svg width="78" height="89" viewBox="0 0 78 89" fill="none" xmlns="http://www.w3.org/2000/svg">
<g opacity="0.2" clip-path="url(#clip0_321_1627)">
<path d="M71.4973 5.35397C68.4347 4.03034 65.04 5.24556 63.44 8.23904C63.2678 8.56427 63.0504 8.8755 62.9304 9.21996C61.3147 13.8973 59.7095 18.5781 58.1095 23.2589C56.9947 26.5181 55.8887 29.7826 54.7739 33.0629C55.946 33.3864 56.4521 33.0716 56.8017 32.0208C58.946 25.5634 61.1321 19.1201 63.3843 12.7013C64.0452 10.8146 64.353 8.71289 66.0365 7.32106C68.76 5.79285 70.433 6.23698 72.0869 7.6358C73.8156 9.09756 74.0973 11.007 73.1269 13.6647C71.0295 19.4104 68.9147 25.149 66.8521 30.9069C66.5078 31.8686 66.2782 32.2288 65.153 31.6798C62.9739 30.6167 60.1878 31.1168 58.9478 33.1083C57.866 34.8464 56.5339 34.8936 54.9374 34.7642C53.1878 34.6226 51.3895 35.1978 49.7182 33.9162C48.8452 33.2465 47.7356 33.8689 47.1426 34.8551C46.8452 35.3499 46.7113 35.9462 46.5095 36.4987C46.3826 36.8467 46.3182 37.2961 45.8243 37.2314C45.4417 37.1824 45.4139 36.7872 45.3513 36.4742C45.2678 36.0529 45.1878 35.6315 45.1147 35.2066C44.5026 31.6606 43.9147 28.1093 43.2695 24.5685C43.0347 23.2834 42.2939 22.3584 40.8834 22.4161C39.4869 22.4738 38.7774 23.4407 38.6347 24.7311C38.2226 28.4677 37.7843 32.2043 37.6782 35.9672C37.6087 36.2225 36.5617 47.4218 36.0347 52.76C35.8887 54.2393 35.9756 55.7832 35.4608 57.287C34.7513 56.883 34.873 56.3463 34.7982 55.8881C34.1565 51.9732 33.5182 48.0582 32.88 44.145C32.953 43.4474 32.9269 42.762 32.6087 42.1185C32.6087 42.1185 32.6087 42.1185 32.6087 42.1167C32.3408 40.2039 32.0956 38.2875 31.7965 36.3798C31.6695 35.572 31.4052 34.6908 30.6261 34.3673C29.6139 33.9459 29.4121 33.0996 29.1217 32.2481C26.5182 24.642 23.9252 17.0324 21.313 9.42979C20.6174 7.40674 19.4365 5.82957 17.2434 5.27179C15.8487 4.7822 13.1165 5.03399 12.0261 5.75438C9.03301 7.73197 8.13736 10.3897 9.36692 13.7941C11.2087 18.8893 13.1026 23.967 14.92 29.071C15.3026 30.1463 15.8365 30.5555 16.9652 30.0816C16.7774 29.5186 16.6034 28.9573 16.4017 28.4048C14.52 23.2659 12.7008 18.1025 10.7182 13.0038C9.62432 10.1886 11.6469 6.45904 14.8834 6.29992C17.4365 6.5045 19.1269 7.74595 19.9687 10.2568C22.5461 17.9469 25.1913 25.6124 27.8069 33.2867C27.9391 33.6749 28.3113 34.0718 27.9374 34.4809C27.2156 35.2713 27.0313 36.2907 26.673 37.2401C26.5669 37.5199 26.5061 37.9133 26.1043 37.9378C25.7008 37.9605 25.6087 37.6038 25.48 37.3135C24.96 36.135 24.4 34.9723 23.9304 33.7728C23.3913 32.3932 22.4678 31.8109 20.9721 31.8267C15.9374 31.8791 10.9026 31.8459 5.86779 31.8494C5.49388 31.8494 5.11127 31.8389 4.75127 31.9193C4.58779 31.9561 4.39301 32.1851 4.35301 32.3582C4.27997 32.6764 4.5304 32.8531 4.81388 32.8863C5.23649 32.9352 5.66605 32.9492 6.09388 32.9492C10.9687 32.9545 15.8434 32.9842 20.7165 32.9317C21.9165 32.9195 22.5965 33.3339 23.0208 34.4599C23.5878 35.9654 24.2834 37.422 24.9321 38.896C25.1913 39.4852 25.4191 40.1829 26.2226 40.1217C26.92 40.0692 27.113 39.4328 27.3078 38.8697C27.553 38.1598 27.7826 37.4429 28.0347 36.7365C28.3008 35.9899 28.4469 35.0037 29.4887 35.0982C30.473 35.1856 30.626 36.1175 30.753 36.9254C31.1408 39.3681 31.5095 41.8142 31.8869 44.2587C32.6261 49.0409 33.3721 53.8214 34.0991 58.6054C34.2191 59.3904 34.5287 59.9587 35.393 59.95C36.2817 59.943 36.5269 59.2803 36.6521 58.5459C36.68 58.3868 36.6921 58.2259 36.706 58.0651C37.0295 54.4753 37.4121 50.8891 37.6591 47.2941C37.8939 43.8723 38.8052 34.0805 38.9739 32.603C39.2521 30.1481 39.433 27.6809 39.6521 25.219C39.7252 24.4094 40.0243 23.6261 40.8643 23.5352C41.7756 23.4355 42.08 24.2381 42.233 25.0214C42.3356 25.5495 42.4295 26.0775 42.52 26.6073C43.1547 30.3142 43.8 34.0176 44.4104 37.7279C44.5426 38.5305 44.7374 39.2212 45.6765 39.3243C46.7234 39.438 47.0452 38.6984 47.2956 37.8871C47.5321 37.1195 47.7026 36.3204 48.0347 35.5965C48.3739 34.8586 49.1078 34.4512 49.6765 35.1908C50.3391 36.0494 51.1269 35.9409 51.9634 35.9427C53.6226 35.9479 55.2834 35.8902 56.9391 35.9654C58 36.0144 58.6191 35.7661 59.1652 34.7047C60.6121 31.8931 64.1408 31.5347 66.32 33.8287C66.5617 34.0823 66.626 34.5526 67.1634 34.5474C67.6904 33.1153 68.2226 31.6658 68.753 30.2163C70.8 24.6245 72.8852 19.0467 74.88 13.4357C76.0591 10.1327 74.5513 6.67411 71.4973 5.35397Z" fill="white"/>
<path d="M64.7722 33.9354C63.193 32.9597 61.127 33.4353 60.1148 35.0107C59.0852 36.6124 59.4991 38.4081 61.167 39.5901C61.3896 39.9853 61.7635 40.1234 62.1774 40.1916C63.2122 40.3595 64.16 40.1234 65.0365 39.5639C65.3983 39.3716 65.6017 39.0428 65.7687 38.6861C66.8174 36.7925 66.433 34.9618 64.7722 33.9354Z" fill="white"/>
<path d="M60.5443 40.5605C59.346 39.4467 58.8469 37.5268 56.466 37.8975C54.3808 38.221 52.1356 38.2192 50.0834 37.7821C48.7339 37.4954 48.5808 37.8818 48.3217 38.8575C47.7999 40.828 47.2434 42.7899 46.6643 44.7447C46.4886 45.3375 46.1199 45.8236 45.3999 45.7624C44.7634 45.7082 44.5113 45.2326 44.3721 44.6818C44.2817 44.3181 44.2052 43.9509 44.1408 43.582C43.6347 40.6759 43.1321 37.7716 42.633 34.8656C42.4886 34.028 42.0852 33.4038 41.1669 33.4982C40.3426 33.5822 40.0573 34.2466 39.9895 35.0037C39.866 36.3938 39.7599 37.7856 39.6313 39.1739C39.1286 44.5716 38.5965 49.9676 38.1217 55.3688C37.7495 59.5915 37.4469 63.8212 37.113 68.0456C37.066 68.3079 37.0608 68.5877 36.9652 68.8307C36.7026 69.4864 36.6904 70.4376 35.6313 70.3187C34.7078 70.2155 34.6469 69.4357 34.3947 68.7031C34.0956 67.834 34.4608 66.8601 33.8765 66.075C33.8765 66.075 33.8765 66.0733 33.8747 66.0733C32.9008 58.3518 31.5965 50.681 30.3965 42.9945C30.266 42.1569 30.1686 41.3631 29.1304 41.2197C28.1078 41.0798 27.7269 41.7565 27.4173 42.5643C27.2052 43.1169 26.9495 43.7306 26.233 43.7061C25.5426 43.6816 25.2834 43.0784 25.0434 42.5346C24.153 40.5203 23.1843 38.534 22.4295 36.469C21.9947 35.2782 21.3426 35.0055 20.1704 35.0212C15.6191 35.0859 11.0678 35.0247 6.51647 35.0684C5.78603 35.0754 4.45386 34.6295 4.43821 35.5318C4.41908 36.6106 5.79299 36.2347 6.54951 36.2452C10.9391 36.3046 15.3304 36.3011 19.7217 36.2556C20.6678 36.2452 21.1826 36.5564 21.5373 37.4359C22.3199 39.3768 23.1478 41.3036 24.0365 43.199C25.0452 45.348 26.873 45.5211 28.2573 43.6607C28.4591 43.3896 28.4765 42.8336 28.993 43.012C29.3217 43.1256 29.3095 43.5313 29.3582 43.8512C30.546 51.5937 31.7391 59.3362 32.9304 67.0787C33.0173 67.6539 33.1182 68.2292 33.1895 68.808C33.426 70.7086 34.3269 71.693 35.7895 71.6388C37.1617 71.5881 37.9078 70.6072 38.033 68.6891C38.0156 67.6819 38.0278 66.6818 38.6452 65.6361C39.1947 67.2553 39.7286 68.7153 40.1826 70.1998C40.506 71.2559 41.1356 71.9099 42.2417 71.8801C43.2834 71.8504 43.8278 71.144 44.1408 70.1893C47.2504 60.6948 50.3739 51.2056 53.4747 41.7093C53.5808 41.3858 54.1043 40.8683 53.3721 40.6672C52.8782 40.5308 52.2765 40.4644 51.9669 41.0921C51.8504 41.3299 51.7947 41.5991 51.7113 41.8544C48.8591 50.5271 46.0121 59.2016 43.146 67.8708C42.953 68.4548 42.9373 69.3675 42.193 69.4077C41.2678 69.4567 41.3739 68.439 41.1565 67.841C40.5356 66.124 39.9982 64.3755 39.3965 62.6514C39.0539 61.6722 38.8886 60.6878 38.9826 59.6457C39.5721 53.1149 40.0921 46.5789 40.7652 40.0569C40.9182 38.5707 40.6469 36.9865 41.4643 35.2118C42.0591 38.5759 42.586 41.5852 43.1252 44.5926C43.3617 45.918 43.9599 46.9671 45.4539 47.0353C46.986 47.1053 47.5808 45.9932 47.9582 44.7482C48.426 43.2078 48.88 41.6586 49.2504 40.0937C49.4156 39.3995 49.6139 39.1355 50.4052 39.1844C52.0591 39.2893 53.7269 39.2719 55.3843 39.2089C56.8695 39.1512 58.2382 39.1652 59.0626 40.7459C59.2573 41.12 59.8208 41.2984 60.2139 41.5677C61.3182 42.2234 63.1443 42.4629 61.8834 44.486C61.3147 45.9914 60.7321 47.4899 60.1773 49.0007C56.7687 58.2748 53.3965 67.5613 49.9478 76.8197C48.7443 80.051 46.2052 81.789 42.8921 82.1457C39.8243 82.4762 37.2278 81.2994 35.3234 78.7903C33.866 76.8704 33.3008 74.5291 32.4869 72.3278C28.3721 61.1984 24.3373 50.0393 20.3043 38.8784C19.9843 37.9937 19.5321 37.3345 18.6104 37.7436C17.6313 38.1773 18.553 38.8487 18.7217 39.3138C23.2626 51.8333 27.84 64.3387 32.4208 76.8442C33.9791 81.0966 37.6626 83.8243 41.8591 83.8768C46.2713 83.931 49.9443 81.4009 51.6469 77.1117C52.0817 76.0136 52.4626 74.8946 52.8643 73.7843C56.2904 64.3475 59.7182 54.9089 63.1443 45.4721C63.84 44.0646 64.32 42.5871 64.7826 40.8368C63.1547 41.461 61.833 41.1638 60.5443 40.5605Z" fill="white"/>
</g>
<defs>
<clipPath id="clip0_321_1627">
<rect width="80" height="89" fill="white"/>
</clipPath>
</defs>
</svg>
