<svg width="132" height="148" viewBox="0 0 132 148" fill="none" xmlns="http://www.w3.org/2000/svg">
<path d="M124.27 1.92593C118.604 -0.527996 112.324 1.72495 109.364 7.27466C109.045 7.8776 108.643 8.45462 108.421 9.09322C105.432 17.7646 102.463 26.4425 99.5026 35.1204C97.4402 41.1629 95.394 47.215 93.3316 53.2964C95.5001 53.8961 96.4364 53.3126 97.0831 51.3643C101.05 39.3929 105.094 27.4474 109.261 15.5473C110.484 12.0496 111.053 8.15314 114.167 5.57279C119.206 2.73959 122.301 3.56297 125.361 6.15629C128.559 8.86631 129.08 12.4062 127.285 17.3335C123.405 27.9856 119.492 38.6247 115.676 49.2994C115.039 51.0823 114.615 51.7501 112.533 50.7322C108.502 48.7613 103.347 49.6884 101.053 53.3807C99.0521 56.6029 96.5876 56.6904 93.6341 56.4505C90.3974 56.1879 87.0706 57.2544 83.9787 54.8783C82.3635 53.6367 80.3108 54.7908 79.2137 56.6191C78.6635 57.5364 78.4158 58.6419 78.0426 59.6662C77.8077 60.3113 77.6887 61.1444 76.7749 61.0245C76.0671 60.9337 76.0156 60.2011 75.8998 59.6208C75.7454 58.8396 75.5974 58.0584 75.4622 57.2706C74.3297 50.6966 73.2422 44.1128 72.0486 37.5484C71.6142 35.1658 70.2436 33.451 67.6343 33.558C65.0507 33.6649 63.7381 35.4576 63.4742 37.8499C62.7117 44.7773 61.9009 51.7047 61.7047 58.6807C61.576 59.154 59.6391 79.9168 58.6642 89.8136C58.394 92.556 58.5548 95.4184 57.6025 98.2062C56.2898 97.4574 56.515 96.4622 56.3767 95.6129C55.1894 88.3548 54.0087 81.0968 52.8279 73.842C52.963 72.5485 52.9148 71.2778 52.326 70.0849C52.326 70.0849 52.326 70.0849 52.326 70.0816C51.8305 66.5353 51.3768 62.9824 50.8234 59.4458C50.5886 57.9481 50.0995 56.3143 48.6581 55.7146C46.7856 54.9334 46.4124 53.3644 45.8751 51.7858C41.0587 37.6846 36.2615 23.5769 31.429 9.48222C30.1421 5.73163 27.9575 2.80766 23.9003 1.77358C21.32 0.865913 16.2655 1.33271 14.2481 2.66827C8.71102 6.33458 7.05406 11.2619 9.32876 17.5734C12.736 27.0195 16.2397 36.4333 19.6019 45.8957C20.3097 47.8893 21.2975 48.6478 23.3855 47.7694C23.0381 46.7255 22.7163 45.685 22.3431 44.6606C18.8619 35.1334 15.4965 25.5608 11.8287 16.1082C9.80494 10.8891 13.5468 3.97466 19.5343 3.67966C24.2575 4.05894 27.3848 6.36051 28.942 11.0155C33.7102 25.2723 38.6038 39.4837 43.4428 53.7113C43.6873 54.4309 44.3758 55.1668 43.6841 55.9253C42.3488 57.3906 42.0078 59.2805 41.345 61.0407C41.1488 61.5593 41.0362 62.2887 40.2929 62.3341C39.5465 62.3762 39.376 61.7149 39.1379 61.1768C38.1759 58.9919 37.1399 56.8362 36.2712 54.6125C35.2738 52.0548 33.5654 50.9753 30.7984 51.0045C21.4841 51.1018 12.1697 51.0402 2.85537 51.0467C2.16363 51.0467 1.45581 51.0272 0.789806 51.1763C0.487371 51.2444 0.127021 51.6691 0.0530208 51.99C-0.0821096 52.58 0.381193 52.9074 0.905627 52.969C1.68745 53.0597 2.48215 53.0857 3.27363 53.0857C12.292 53.0954 21.3103 53.1505 30.3255 53.0532C32.5455 53.0306 33.8035 53.7988 34.5885 55.8864C35.6374 58.6775 36.9243 61.3778 38.1244 64.1105C38.6038 65.203 39.0253 66.4964 40.5117 66.3829C41.8019 66.2857 42.159 65.1057 42.5194 64.0619C42.973 62.7458 43.3977 61.4167 43.8642 60.1071C44.3565 58.7229 44.6268 56.8946 46.554 57.0696C48.375 57.2317 48.6581 58.9595 48.893 60.4572C49.6105 64.9858 50.2926 69.5208 50.9908 74.0527C52.3581 82.9186 53.7384 91.7812 55.0833 100.65C55.3053 102.106 55.878 103.159 57.477 103.143C59.1211 103.13 59.5748 101.902 59.8064 100.54C59.8579 100.245 59.8804 99.947 59.9061 99.6487C60.5046 92.9936 61.2124 86.345 61.6693 79.6802C62.1036 73.3363 63.7895 55.183 64.1016 52.4438C64.6164 47.8925 64.951 43.3186 65.3564 38.7543C65.4915 37.2534 66.0449 35.8012 67.5989 35.6326C69.2848 35.4478 69.8479 36.9358 70.131 38.388C70.3208 39.367 70.4946 40.346 70.6619 41.3282C71.8362 48.2005 73.0299 55.0663 74.1592 61.9451C74.4037 63.433 74.7641 64.7135 76.5015 64.9047C78.4383 65.1154 79.0335 63.7442 79.4968 62.2401C79.9344 60.817 80.2497 59.3356 80.8642 57.9935C81.4916 56.6255 82.8494 55.8702 83.9015 57.2415C85.1273 58.8331 86.5848 58.6321 88.1323 58.6354C91.2017 58.6451 94.2743 58.5381 97.3373 58.6775C99.2999 58.7683 100.445 58.308 101.456 56.3403C104.132 51.1277 110.66 50.4632 114.692 54.7162C115.139 55.1863 115.258 56.0583 116.252 56.0485C117.227 53.3936 118.212 50.7063 119.193 48.019C122.98 37.6522 126.838 27.3113 130.528 16.9088C132.709 10.7854 129.92 4.37338 124.27 1.92593Z" fill="white"/>
<path d="M111.829 54.9139C108.907 53.1051 105.085 53.9868 103.212 56.9076C101.308 59.8769 102.073 63.2061 105.159 65.3974C105.571 66.1301 106.262 66.3861 107.028 66.5126C108.943 66.8238 110.696 66.3861 112.318 65.3488C112.987 64.9922 113.363 64.3828 113.672 63.7215C115.612 60.2108 114.901 56.8168 111.829 54.9139Z" fill="white"/>
<path d="M104.007 67.1965C101.79 65.1316 100.867 61.5723 96.462 62.2595C92.6044 62.8592 88.4508 62.856 84.6542 62.0456C82.1575 61.5139 81.8744 62.2303 81.395 64.0392C80.4298 67.6925 79.4002 71.3297 78.3288 74.9538C78.0039 76.0527 77.3218 76.9539 75.9898 76.8405C74.8122 76.74 74.3457 75.8582 74.0883 74.8371C73.921 74.1629 73.7794 73.4821 73.6604 72.7981C72.7241 67.4105 71.7943 62.0261 70.8709 56.6385C70.6039 55.0857 69.8574 53.9285 68.1587 54.1035C66.6336 54.2591 66.106 55.4909 65.9805 56.8946C65.752 59.4717 65.5558 62.0521 65.3177 64.6259C64.3879 74.6329 63.4034 84.6366 62.525 94.6501C61.8365 102.479 61.2767 110.32 60.6589 118.152C60.572 118.638 60.5624 119.157 60.3854 119.608C59.8996 120.823 59.8771 122.587 57.9177 122.366C56.2093 122.175 56.0967 120.729 55.6301 119.371C55.0767 117.76 55.7524 115.954 54.6714 114.499C54.6714 114.499 54.6714 114.495 54.6681 114.495C52.8664 100.18 50.4534 85.9592 48.2334 71.7089C47.992 70.1562 47.8119 68.6845 45.8911 68.4186C43.9993 68.1593 43.2947 69.4138 42.722 70.9115C42.3294 71.9358 41.8565 73.0737 40.5309 73.0283C39.2536 72.9829 38.7742 71.8645 38.3302 70.8564C36.6829 67.122 34.8908 63.4395 33.4945 59.6111C32.6901 57.4035 31.4836 56.8978 29.3151 56.927C20.8952 57.0469 12.4753 56.9335 4.05535 57.0145C2.70405 57.0275 0.239527 56.2009 0.210571 57.8736C0.17518 59.8737 2.71692 59.1767 4.11648 59.1962C12.2372 59.3064 20.3611 59.2999 28.485 59.2156C30.2353 59.1962 31.1876 59.7732 31.844 61.4037C33.2918 65.002 34.8233 68.5742 36.4674 72.0882C38.3334 76.0722 41.7149 76.3931 44.276 72.944C44.6492 72.4415 44.6813 71.4107 45.6369 71.7413C46.245 71.952 46.2225 72.7041 46.3126 73.2973C48.51 87.6514 50.7172 102.005 52.9211 116.359C53.082 117.426 53.2686 118.492 53.4005 119.565C53.838 123.089 55.5047 124.914 58.2105 124.814C60.749 124.72 62.1293 122.901 62.3609 119.345C62.3287 117.478 62.3513 115.624 63.4934 113.685C64.5101 116.687 65.4979 119.394 66.3376 122.146C66.936 124.104 68.1007 125.316 70.147 125.261C72.0742 125.206 73.0813 123.896 73.6604 122.126C79.4131 104.524 85.1915 86.9317 90.9281 69.3263C91.1244 68.7266 92.0928 67.7671 90.7383 67.3943C89.8246 67.1414 88.7114 67.0183 88.1387 68.182C87.9231 68.6229 87.8201 69.1221 87.6657 69.5954C82.3892 85.674 77.1223 101.756 71.82 117.828C71.4629 118.911 71.434 120.603 70.0569 120.677C68.3453 120.768 68.5415 118.881 68.1393 117.773C66.9907 114.589 65.9966 111.348 64.8834 108.152C64.2495 106.336 63.9439 104.511 64.1176 102.579C65.2083 90.4716 66.1703 78.3543 67.4154 66.263C67.6986 63.5075 67.1967 60.5706 68.7088 57.2803C69.8092 63.5173 70.784 69.0962 71.7814 74.6718C72.219 77.129 73.3258 79.074 76.0895 79.2004C78.924 79.33 80.0244 77.2684 80.7226 74.9603C81.5881 72.1044 82.4278 69.2323 83.1131 66.331C83.4187 65.0441 83.7855 64.5546 85.2494 64.6454C88.3092 64.8399 91.3947 64.8074 94.4608 64.6908C97.2085 64.5838 99.7406 64.6097 101.266 67.5402C101.626 68.2339 102.668 68.5645 103.396 69.0637C105.439 70.2794 108.817 70.7235 106.484 74.4741C105.432 77.2651 104.354 80.0432 103.328 82.844C97.0219 100.038 90.7834 117.254 84.4033 134.419C82.1768 140.409 77.4794 143.631 71.3503 144.293C65.6748 144.905 60.8713 142.724 57.3482 138.072C54.652 134.513 53.6064 130.172 52.1007 126.091C44.4883 105.458 37.024 84.7695 29.5628 64.0781C28.9708 62.4378 28.1343 61.2157 26.4291 61.9742C24.6177 62.7782 26.3229 64.023 26.635 64.8853C35.0356 88.0955 43.5038 111.28 51.9784 134.464C54.8612 142.348 61.6756 147.405 69.4392 147.502C77.6017 147.602 84.3968 142.912 87.5467 134.96C88.351 132.924 89.0556 130.85 89.7988 128.791C96.1371 111.296 102.479 93.7975 108.817 76.3023C110.104 73.6928 110.992 70.9536 111.848 67.7087C108.836 68.866 106.391 68.3149 104.007 67.1965Z" fill="white"/>
</svg>
