<svg width="16" height="16" viewBox="0 0 16 16" fill="none" xmlns="http://www.w3.org/2000/svg">
<path d="M15.8385 3.93289L12.067 0.161282C11.9637 0.0580202 11.8236 0 11.6775 0C11.5314 0 11.3913 0.0580202 11.2881 0.161282L0.279634 11.1697C0.180486 11.269 0.122833 11.4022 0.118573 11.5424L0.000255796 15.4324C-0.00437114 15.5842 0.0539429 15.7313 0.161317 15.8387C0.264799 15.9421 0.404929 16 0.550787 16C0.556369 16 0.56195 15.9999 0.567606 15.9997L4.45746 15.8812C4.59766 15.877 4.73096 15.8194 4.83018 15.7203L15.8386 4.7119C16.0536 4.49679 16.0536 4.14801 15.8385 3.93289ZM4.20555 14.7868L1.11917 14.8808L1.2131 11.7943L7.90555 5.10174L10.8984 8.09404L4.20555 14.7868ZM11.6774 7.3151L8.68449 4.32288L11.6775 1.32984L14.67 4.32243L11.6774 7.3151Z" fill="white"/>
</svg>
