<svg width="26" height="26" viewBox="0 0 26 26" fill="none" xmlns="http://www.w3.org/2000/svg">
<g clip-path="url(#clip0_13_1202)">
<path d="M13 16.2419C11.2051 16.2419 9.75 17.697 9.75 19.4919V25.9919H16.25V19.4919C16.25 17.697 14.7949 16.2419 13 16.2419Z" fill="#1F7546"/>
<path d="M18.4167 19.4919V25.9919H22.75C24.5449 25.9919 26 24.5368 26 22.7419V12.8608C26.0003 12.298 25.7815 11.7572 25.3901 11.3528L16.1839 1.40018C14.5595 -0.357355 11.818 -0.465265 10.0604 1.15913C9.97694 1.23631 9.8965 1.3167 9.81937 1.40018L0.629434 11.3496C0.226129 11.7556 -0.000152267 12.3047 7.68741e-08 12.8771V22.7419C7.68741e-08 24.5368 1.45509 25.9919 3.25 25.9919H7.58332V19.4919C7.60358 16.5378 9.98862 14.1255 12.8683 14.056C15.8443 13.9842 18.394 16.4376 18.4167 19.4919Z" fill="#1F7546"/>
<path d="M13 16.2419C11.2051 16.2419 9.75 17.697 9.75 19.4919V25.9919H16.25V19.4919C16.25 17.697 14.7949 16.2419 13 16.2419Z" fill="#1F7546"/>
</g>
<defs>
<clipPath id="clip0_13_1202">
<rect width="26" height="26" fill="white"/>
</clipPath>
</defs>
</svg>
