<svg width="23" height="23" viewBox="0 0 23 23" fill="none" xmlns="http://www.w3.org/2000/svg">
<path d="M21.5625 10.0625H1.4375C0.643596 10.0625 0 10.7061 0 11.5C0 12.2939 0.643596 12.9375 1.4375 12.9375H21.5625C22.3564 12.9375 23 12.2939 23 11.5C23 10.7061 22.3564 10.0625 21.5625 10.0625Z" fill="#1F7546"/>
<path d="M1.4375 6.22925H21.5625C22.3564 6.22925 23 5.58565 23 4.79175C23 3.99784 22.3564 3.35425 21.5625 3.35425H1.4375C0.643596 3.35425 0 3.99784 0 4.79175C0 5.58565 0.643596 6.22925 1.4375 6.22925Z" fill="#1F7546"/>
<path d="M21.5625 16.771H1.4375C0.643596 16.771 0 17.4146 0 18.2085C0 19.0024 0.643596 19.646 1.4375 19.646H21.5625C22.3564 19.646 23 19.0024 23 18.2085C23 17.4146 22.3564 16.771 21.5625 16.771Z" fill="#1F7546"/>
</svg>
