<svg width="26" height="26" viewBox="0 0 26 26" fill="none" xmlns="http://www.w3.org/2000/svg">
<g clip-path="url(#clip0_13_1194)">
<path d="M21.699 1.00146H4.30091C1.74214 1.00146 -0.252062 3.22704 0.0259097 5.76918L1.25424 17.0082C1.49323 19.1935 3.33111 20.8414 5.52923 20.8414C6.27938 20.8414 12.1336 20.8414 13.1967 20.8414L16.7683 24.4705C17.7691 25.4879 19.5096 24.9569 19.7657 23.5474L20.2577 20.8414C22.863 20.8414 24.5204 19.0691 24.7458 17.0082L25.9741 5.76918C26.2521 3.22554 24.2563 1.00146 21.699 1.00146ZM24.4797 5.60584L23.2515 16.8449C23.096 18.2664 21.9006 19.3383 20.4707 19.3383H19.6304C19.2672 19.3383 18.9561 19.598 18.891 19.9554L18.2868 23.2785C18.2483 23.4897 17.9899 23.5691 17.8395 23.4162L15.251 20.786C16.012 20.4769 15.7912 19.3382 14.9687 19.3382C13.8681 19.3382 6.47227 19.3382 5.52923 19.3382C4.09939 19.3382 2.90393 18.2663 2.74851 16.8448L1.52018 5.60584C1.33921 3.95134 2.63738 2.50456 4.30091 2.50456H21.699C23.3633 2.50456 24.6606 3.95214 24.4797 5.60584Z" fill="black"/>
<path d="M8.4308 12.6187C9.10559 12.6187 9.65261 12.0717 9.65261 11.3969C9.65261 10.7221 9.10559 10.175 8.4308 10.175C7.75601 10.175 7.20898 10.7221 7.20898 11.3969C7.20898 12.0717 7.75601 12.6187 8.4308 12.6187Z" fill="black"/>
<path d="M12.9999 12.6187C13.6747 12.6187 14.2217 12.0717 14.2217 11.3969C14.2217 10.7221 13.6747 10.175 12.9999 10.175C12.3251 10.175 11.7781 10.7221 11.7781 11.3969C11.7781 12.0717 12.3251 12.6187 12.9999 12.6187Z" fill="black"/>
<path d="M17.569 12.6187C18.2438 12.6187 18.7908 12.0717 18.7908 11.3969C18.7908 10.7221 18.2438 10.175 17.569 10.175C16.8942 10.175 16.3472 10.7221 16.3472 11.3969C16.3472 12.0717 16.8942 12.6187 17.569 12.6187Z" fill="black"/>
</g>
<defs>
<clipPath id="clip0_13_1194">
<rect width="26" height="26" fill="white"/>
</clipPath>
</defs>
</svg>
