<svg width="26" height="26" viewBox="0 0 26 26" fill="none" xmlns="http://www.w3.org/2000/svg">
<g clip-path="url(#clip0_23_1120)">
<path d="M21.6991 1.75305H4.30097C2.18831 1.75305 0.543521 3.58743 0.772995 5.68756L2.00133 16.9266C2.19803 18.7266 3.71847 20.09 5.5292 20.09H13.5115L17.3039 23.9435C17.8809 24.5298 18.8792 24.2224 19.0263 23.413L19.6306 20.09H20.4708C22.2816 20.09 23.802 18.7266 23.9987 16.9266L25.227 5.68756C25.4566 3.58733 23.8118 1.75305 21.6991 1.75305Z" fill="#1F7546"/>
<path d="M21.6991 1.00146H4.30097C1.74219 1.00146 -0.252019 3.22705 0.0259537 5.76919L1.25429 17.0083C1.49328 19.1936 3.33117 20.8415 5.5293 20.8415C6.27945 20.8415 12.1337 20.8415 13.1968 20.8415L16.7684 24.4705C17.7692 25.4879 19.5097 24.9569 19.7658 23.5474L20.2579 20.8415C22.8631 20.8415 24.5206 19.0692 24.7459 17.0083L25.9742 5.76919C26.2522 3.22555 24.2564 1.00146 21.6991 1.00146ZM24.4799 5.60586L23.2516 16.8449C23.0961 18.2665 21.9007 19.3384 20.4708 19.3384H19.6306C19.2673 19.3384 18.9562 19.5981 18.8911 19.9554L18.2869 23.2786C18.2484 23.4898 17.99 23.5692 17.8396 23.4163L15.2511 20.7861C16.0121 20.477 15.7914 19.3383 14.9688 19.3383C13.8682 19.3383 6.47234 19.3383 5.5293 19.3383C4.09945 19.3383 2.90399 18.2664 2.74857 16.8448L1.52023 5.60586C1.33926 3.95135 2.63744 2.50456 4.30097 2.50456H21.6991C23.3635 2.50456 24.6607 3.95215 24.4799 5.60586Z" fill="#1F7546"/>
<path d="M8.43098 12.6187C9.10577 12.6187 9.6528 12.0717 9.6528 11.3969C9.6528 10.7221 9.10577 10.175 8.43098 10.175C7.75619 10.175 7.20916 10.7221 7.20916 11.3969C7.20916 12.0717 7.75619 12.6187 8.43098 12.6187Z" fill="white"/>
<path d="M13 12.6187C13.6748 12.6187 14.2218 12.0717 14.2218 11.3969C14.2218 10.7221 13.6748 10.175 13 10.175C12.3252 10.175 11.7782 10.7221 11.7782 11.3969C11.7782 12.0717 12.3252 12.6187 13 12.6187Z" fill="white"/>
<path d="M17.569 12.6187C18.2438 12.6187 18.7908 12.0717 18.7908 11.3969C18.7908 10.7221 18.2438 10.175 17.569 10.175C16.8942 10.175 16.3472 10.7221 16.3472 11.3969C16.3472 12.0717 16.8942 12.6187 17.569 12.6187Z" fill="white"/>
</g>
<defs>
<clipPath id="clip0_23_1120">
<rect width="26" height="26" fill="white"/>
</clipPath>
</defs>
</svg>
