<svg width="19" height="24" viewBox="0 0 19 24" fill="none" xmlns="http://www.w3.org/2000/svg">
<path d="M15.7083 8.83317C15.7083 7.10926 15.0235 5.45596 13.8045 4.23698C12.5855 3.01799 10.9322 2.33317 9.20833 2.33317C7.48443 2.33317 5.83113 3.01799 4.61214 4.23698C3.39315 5.45596 2.70833 7.10926 2.70833 8.83317V17.4998H15.7083V8.83317ZM17.875 18.2224L18.3083 18.7998C18.3687 18.8803 18.4054 18.976 18.4145 19.0762C18.4235 19.1764 18.4045 19.2771 18.3595 19.3671C18.3145 19.4571 18.2453 19.5327 18.1598 19.5856C18.0742 19.6385 17.9756 19.6665 17.875 19.6665H0.541667C0.441073 19.6665 0.342466 19.6385 0.256896 19.5856C0.171326 19.5327 0.102172 19.4571 0.0571855 19.3671C0.0121985 19.2771 -0.00684494 19.1764 0.00218897 19.0762C0.0112229 18.976 0.0479771 18.8803 0.108333 18.7998L0.541667 18.2224V8.83317C0.541667 6.53463 1.45476 4.33023 3.08008 2.70491C4.70539 1.0796 6.90979 0.166504 9.20833 0.166504C11.5069 0.166504 13.7113 1.0796 15.3366 2.70491C16.9619 4.33023 17.875 6.53463 17.875 8.83317V18.2224ZM6.5 20.7498H11.9167C11.9167 21.4681 11.6313 22.157 11.1234 22.6649C10.6155 23.1728 9.92663 23.4582 9.20833 23.4582C8.49004 23.4582 7.80116 23.1728 7.29325 22.6649C6.78534 22.157 6.5 21.4681 6.5 20.7498Z" fill="black"/>
</svg>
