<svg width="34" height="34" viewBox="0 0 34 34" fill="none" xmlns="http://www.w3.org/2000/svg">
<g clip-path="url(#clip0_10_279)">
<path d="M-1.38363 51.1068C-0.873526 51.1098 -0.371251 50.9813 0.0746684 50.7336C0.520588 50.4858 0.895077 50.1273 1.16195 49.6926L10.0927 35.9959C10.6549 35.255 10.9991 34.3719 11.0865 33.4459C11.1739 32.52 11.001 31.588 10.5874 30.755C10.1737 29.922 9.53575 29.2211 8.74526 28.7311C7.95477 28.241 7.04317 27.9815 6.11312 27.9816L3.6842 27.9823C3.55272 27.9823 3.42253 27.9564 3.30108 27.906C3.17962 27.8557 3.06929 27.7819 2.97639 27.6888L0.736278 25.4487C0.41975 25.1353 0.0366753 24.8972 -0.384488 24.7522L-0.383781 24.7416L-0.420549 24.7416C-1.04432 24.5322 -1.71963 24.5337 -2.34247 24.7458L-2.37924 24.7458L-2.37853 24.7564C-2.79969 24.9015 -3.18277 25.1395 -3.49929 25.4529L-5.73941 27.6931C-5.92668 27.8806 -6.18075 27.9862 -6.44581 27.9865H-8.87401C-9.5289 27.9829 -10.178 28.1089 -10.784 28.3574C-11.3899 28.6058 -11.9407 28.9717 -12.4046 29.434C-12.79 29.8203 -13.1103 30.2667 -13.3528 30.7555C-13.7676 31.576 -13.9449 32.496 -13.8647 33.4118C-13.7845 34.3276 -13.45 35.2028 -12.8989 35.9386L-3.94689 49.6636C-3.68137 50.1057 -3.30549 50.4711 -2.85612 50.7241C-2.40675 50.9772 -1.89933 51.109 -1.38363 51.1068ZM3.68138 29.982L6.111 29.9805C6.67026 29.9737 7.21987 30.1266 7.69531 30.4212C8.17075 30.7157 8.5523 31.1398 8.79517 31.6437C9.0517 32.1532 9.15648 32.7257 9.09707 33.293C9.03765 33.8604 8.81653 34.3987 8.46 34.844L-0.383074 48.4035L-0.384488 27.1535L1.56359 29.1016C1.84088 29.381 2.17083 29.6027 2.53434 29.7538C2.89785 29.9049 3.28771 29.9825 3.68138 29.982ZM-11.2676 34.791C-11.6038 34.3461 -11.8095 33.8164 -11.8614 33.2611C-11.9132 32.7059 -11.8094 32.1472 -11.5614 31.6477C-11.3134 31.1483 -10.931 30.7278 -10.4573 30.4336C-9.98365 30.1393 -9.43732 29.9829 -8.87967 29.982H-6.44722C-6.05352 29.983 -5.6635 29.906 -5.29975 29.7554C-4.93599 29.6048 -4.60572 29.3835 -4.32802 29.1044L-2.37994 27.1564L-2.38348 48.4042L-11.2676 34.791Z" fill="white"/>
<g clip-path="url(#clip1_10_279)">
<path d="M15.998 32.5424L16.0015 6.36906C15.5806 6.51412 15.1978 6.75199 14.8814 7.06513L12.6398 9.30671C12.4528 9.49474 12.1983 9.60008 11.9331 9.59928L9.50426 9.59998C8.18218 9.59544 6.91281 10.1181 5.97724 11.0522C5.59162 11.4386 5.27156 11.8852 5.02958 12.3744C4.18239 14.0481 4.35825 16.0575 5.48327 17.5586L14.4376 31.2887C14.7962 31.8754 15.348 32.3186 15.998 32.5424Z" fill="white"/>
<path d="M19.5469 31.3142L28.4779 17.6159C30.1456 15.417 29.715 12.2825 27.5161 10.6148C26.6477 9.95627 25.5878 9.59961 24.4979 9.59931L22.0697 9.59931C21.8044 9.59934 21.5499 9.49384 21.3623 9.30605L19.1208 7.06447C18.8044 6.75133 18.4215 6.51342 18.0007 6.36839L18.0028 32.5431C18.6442 32.3244 19.1899 31.8901 19.5469 31.3142Z" fill="white"/>
</g>
</g>
<defs>
<clipPath id="clip0_10_279">
<rect width="24" height="24" fill="white" transform="translate(33.9706 17) rotate(135)"/>
</clipPath>
<clipPath id="clip1_10_279">
<rect width="24" height="24" fill="white" transform="translate(33.9706 17) rotate(135)"/>
</clipPath>
</defs>
</svg>
