<svg width="30" height="30" viewBox="0 0 30 30" fill="none" xmlns="http://www.w3.org/2000/svg">
<rect width="30" height="30" rx="6" fill="#1F7546"/>
<path d="M16.173 7.50228L18.06 11.3258C18.1912 11.5917 18.4449 11.776 18.7384 11.8186L22.9581 12.4318C23.6972 12.5393 23.9921 13.4473 23.4575 13.9684L20.4041 16.9446C20.192 17.1515 20.0949 17.4499 20.1452 17.742L20.8659 21.9445C20.9922 22.6806 20.2195 23.2417 19.5585 22.8945L15.7846 20.9105C15.5221 20.7726 15.2084 20.7726 14.9459 20.9105L11.172 22.8945C10.511 23.2421 9.73831 22.6806 9.86465 21.9445L10.5853 17.742C10.6356 17.4499 10.5385 17.1515 10.3264 16.9446L7.27305 13.9684C6.73839 13.447 7.03329 12.5389 7.77245 12.4318L11.9921 11.8186C12.2856 11.776 12.5393 11.5917 12.6705 11.3258L14.5575 7.50228C14.8877 6.83257 15.8425 6.83257 16.173 7.50228Z" fill="white"/>
</svg>
