<svg width="30" height="28" viewBox="0 0 30 28" fill="none" xmlns="http://www.w3.org/2000/svg">
<path d="M15.241 0.870305C15.2682 0.870305 15.301 0.869368 15.3338 0.869368C18.3797 0.869368 21 2.68812 22.1691 5.29906L22.1878 5.34687C22.5 6.45312 22.6791 7.72249 22.6791 9.03499C22.6791 9.73718 22.6275 10.4272 22.5282 11.1022L22.5375 11.0253L22.5338 11.0956C22.5197 11.3066 22.5085 11.4997 22.4991 11.6928C22.6228 11.7603 22.77 11.7997 22.9266 11.7997C22.9416 11.7997 22.9566 11.7997 22.9716 11.7987H22.9697C23.4178 11.7566 23.8285 11.6309 24.1978 11.4378L24.18 11.4462C24.3319 11.3694 24.51 11.3244 24.6994 11.3244C24.7078 11.3244 24.7163 11.3244 24.7247 11.3244C24.7322 11.3244 24.7397 11.3244 24.7482 11.3244C24.9535 11.3244 25.1503 11.3628 25.3313 11.4341L25.32 11.4303C25.785 11.54 26.1338 11.9291 26.1797 12.4072V12.4119C26.1972 12.9381 25.7235 13.3944 24.7585 13.7806C24.6544 13.8144 24.5138 13.8687 24.3553 13.9203C23.8285 14.0787 23.0213 14.3422 22.7935 14.8691C22.7597 14.9759 22.741 15.0978 22.741 15.2253C22.741 15.4709 22.8132 15.6997 22.9369 15.8909L22.9341 15.8862L22.9519 15.9041C23.9991 18.2412 26.0325 19.9766 28.5075 20.5944L28.5647 20.6066C28.845 20.6525 29.0569 20.8934 29.0569 21.1841C29.0569 21.1906 29.0569 21.1972 29.0569 21.2037C29.056 21.2994 29.0372 21.3884 29.0025 21.4709L29.0044 21.4662C28.7232 22.1328 27.5128 22.6241 25.3191 22.955C25.2375 23.1462 25.171 23.3712 25.1297 23.6037L25.1269 23.6225C25.0838 23.8737 25.0294 24.0922 24.961 24.3041L24.9703 24.2703C24.9057 24.545 24.6619 24.7466 24.3722 24.7466C24.3544 24.7466 24.3357 24.7456 24.3178 24.7437H24.3197H24.285C24.0544 24.7316 23.8388 24.7006 23.6297 24.6519L23.655 24.6566C23.2078 24.5562 22.695 24.4981 22.1682 24.4981C22.1663 24.4981 22.1653 24.4981 22.1635 24.4981C22.141 24.4981 22.1138 24.4972 22.0866 24.4972C21.736 24.4972 21.3928 24.5291 21.0591 24.59L21.0938 24.5844C20.3157 24.7925 19.6397 25.1497 19.0669 25.6269L19.0753 25.6203C18.0366 26.5053 16.6978 27.065 15.2297 27.1287H15.2166C15.1463 27.1287 15.0769 27.1109 15.0057 27.1109H14.8313C13.3547 27.0547 12.0188 26.4931 10.9819 25.595L10.9894 25.6016C10.4307 25.1319 9.76034 24.7747 9.02628 24.5741L8.98972 24.5656C8.66534 24.5141 8.2894 24.4822 7.90597 24.4794H7.90222C7.36972 24.4869 6.8569 24.5506 6.36284 24.6631L6.41253 24.6537C6.22597 24.6997 6.0094 24.7306 5.78722 24.74H5.78065C5.76565 24.7409 5.74878 24.7419 5.7319 24.7419C5.42722 24.7419 5.17222 24.5337 5.09909 24.2525L5.09815 24.2478C5.0269 24.0228 4.99315 23.7922 4.93972 23.5831C4.89565 23.3309 4.82815 23.1069 4.73722 22.895L4.74472 22.9156C2.49753 22.6559 1.28909 22.1637 1.00878 21.4794C0.972217 21.4025 0.948779 21.3125 0.944092 21.2178V21.2159C0.944092 21.2094 0.944092 21.2019 0.944092 21.1944C0.944092 20.9047 1.15597 20.6647 1.43347 20.6206H1.43722C3.97128 19.9887 6.00565 18.2516 7.0294 15.9631L7.05003 15.9106L7.06878 15.8769C7.19347 15.6941 7.26753 15.4681 7.26753 15.2253C7.26753 15.0941 7.24597 14.9684 7.20659 14.8503L7.2094 14.8587C6.98065 14.3506 6.17347 14.0881 5.64847 13.9109C5.49097 13.8706 5.35597 13.8228 5.22659 13.7647L5.24347 13.7712C3.9469 13.2612 3.77065 12.6819 3.84097 12.2797C4.03503 11.7331 4.5469 11.3497 5.14878 11.3497C5.17034 11.3497 5.19097 11.3506 5.21253 11.3516H5.20972C5.21065 11.3516 5.21065 11.3516 5.21253 11.3516C5.37284 11.3516 5.52659 11.3834 5.66628 11.4416L5.65878 11.4387C6.03472 11.6366 6.47534 11.7631 6.94409 11.7894H6.95253C6.96378 11.7894 6.97597 11.7903 6.98909 11.7903C7.17472 11.7903 7.35003 11.7444 7.50378 11.6637L7.49815 11.6666L7.44472 11C7.35753 10.4112 7.3069 9.73062 7.3069 9.03874C7.3069 7.72062 7.48878 6.44374 7.82722 5.23437L7.80378 5.33374C8.96347 2.69468 11.5547 0.884368 14.5688 0.884368C14.61 0.884368 14.6513 0.884368 14.6916 0.885305H14.685L15.1763 0.867493H15.2466L15.241 0.870305Z" fill="#1F7546"/>
</svg>
